# Blender 3.6.4
# www.blender.org
mtllib spiretop.mtl
o Cone
v -29.958885 3.070078 -3.000000
v -29.989515 2.485610 -2.942356
v -30.018969 1.923601 -2.771638
v -30.046114 1.405652 -2.494409
v -30.069906 0.951665 -2.121320
v -30.089432 0.579088 -1.666711
v -30.103941 0.302238 -1.148050
v -30.112877 0.131755 -0.585271
v -30.115892 0.074190 0.000000
v -30.112877 0.131755 0.585271
v -30.103941 0.302238 1.148050
v -30.089432 0.579088 1.666711
v -30.069906 0.951665 2.121320
v -30.046114 1.405652 2.494409
v -30.018969 1.923601 2.771638
v -29.989515 2.485610 2.942356
v -29.958885 3.070078 3.000000
v -29.928255 3.654547 2.942356
v -29.898802 4.216555 2.771638
v -29.871656 4.734505 2.494409
v -29.847864 5.188491 2.121320
v -29.828339 5.561069 1.666711
v -29.813829 5.837918 1.148050
v -29.804893 6.008401 0.585271
v -29.801878 6.065967 0.000000
v -29.804893 6.008401 -0.585271
v -29.813829 5.837918 -1.148050
v -29.828339 5.561069 -1.666711
v -29.847864 5.188491 -2.121320
v -29.871656 4.734505 -2.494409
v -29.898802 4.216555 -2.771638
v -29.928255 3.654547 -2.942356
v 29.958885 -0.070078 0.000000
vn -0.0581 0.0030 -0.9983
vn 0.9986 -0.0523 -0.0000
vn -0.0683 -0.1915 -0.9791
vn -0.0781 -0.3785 -0.9223
vn -0.0871 -0.5508 -0.8301
vn -0.0950 -0.7019 -0.7059
vn -0.1015 -0.8259 -0.5546
vn -0.1063 -0.9180 -0.3820
vn -0.1093 -0.9747 -0.1948
vn -0.1103 -0.9939 -0.0000
vn -0.1093 -0.9747 0.1948
vn -0.1063 -0.9180 0.3820
vn -0.1015 -0.8259 0.5546
vn -0.0950 -0.7019 0.7059
vn -0.0871 -0.5508 0.8301
vn -0.0781 -0.3785 0.9223
vn -0.0683 -0.1915 0.9791
vn -0.0581 0.0030 0.9983
vn -0.0479 0.1975 0.9791
vn -0.0381 0.3846 0.9223
vn -0.0290 0.5569 0.8301
vn -0.0211 0.7080 0.7059
vn -0.0146 0.8320 0.5546
vn -0.0098 0.9241 0.3820
vn -0.0068 0.9808 0.1948
vn -0.0058 1.0000 -0.0000
vn -0.0068 0.9808 -0.1948
vn -0.0098 0.9241 -0.3820
vn -0.0146 0.8320 -0.5546
vn -0.0211 0.7080 -0.7059
vn -0.0290 0.5569 -0.8301
vn -0.0381 0.3846 -0.9223
vn -0.0479 0.1975 -0.9791
vt 0.715961 0.989820
vt 0.715961 0.749820
vt 0.762783 0.985209
vt 0.807806 0.971551
vt 0.849298 0.949373
vt 0.885667 0.919526
vt 0.915514 0.883157
vt 0.937693 0.841664
vt 0.951350 0.796642
vt 0.955961 0.749820
vt 0.951350 0.702999
vt 0.937693 0.657976
vt 0.915514 0.616483
vt 0.885667 0.580115
vt 0.849298 0.550268
vt 0.807806 0.528089
vt 0.762783 0.514432
vt 0.715961 0.509820
vt 0.669140 0.514432
vt 0.624117 0.528089
vt 0.582625 0.550268
vt 0.546256 0.580115
vt 0.516409 0.616483
vt 0.494230 0.657976
vt 0.480573 0.702999
vt 0.475962 0.749820
vt 0.480573 0.796642
vt 0.494230 0.841664
vt 0.516409 0.883157
vt 0.546256 0.919526
vt 0.582625 0.949373
vt 0.624117 0.971551
vt 0.432372 0.247929
vt 0.434949 0.247659
vt 0.437426 0.246859
vt 0.439709 0.245561
vt 0.441711 0.243813
vt 0.443353 0.241684
vt 0.444573 0.239254
vt 0.445325 0.236618
vt 0.445579 0.233877
vt 0.445325 0.231135
vt 0.444573 0.228499
vt 0.443353 0.226070
vt 0.441711 0.223940
vt 0.439709 0.222193
vt 0.437426 0.220894
vt 0.434949 0.220095
vt 0.432372 0.219825
vt 0.429796 0.220095
vt 0.427318 0.220894
vt 0.425035 0.222193
vt 0.423034 0.223940
vt 0.421392 0.226070
vt 0.420171 0.228499
vt 0.419420 0.231135
vt 0.419166 0.233877
vt 0.419420 0.236618
vt 0.420171 0.239254
vt 0.421392 0.241684
vt 0.423034 0.243813
vt 0.425035 0.245561
vt 0.427318 0.246859
vt 0.429796 0.247659
vt 0.669140 0.985209
s 1
usemtl metal
f 1/1/1 33/2/2 2/3/3
f 2/3/3 33/2/2 3/4/4
f 3/4/4 33/2/2 4/5/5
f 4/5/5 33/2/2 5/6/6
f 5/6/6 33/2/2 6/7/7
f 6/7/7 33/2/2 7/8/8
f 7/8/8 33/2/2 8/9/9
f 8/9/9 33/2/2 9/10/10
f 9/10/10 33/2/2 10/11/11
f 10/11/11 33/2/2 11/12/12
f 11/12/12 33/2/2 12/13/13
f 12/13/13 33/2/2 13/14/14
f 13/14/14 33/2/2 14/15/15
f 14/15/15 33/2/2 15/16/16
f 15/16/16 33/2/2 16/17/17
f 16/17/17 33/2/2 17/18/18
f 17/18/18 33/2/2 18/19/19
f 18/19/19 33/2/2 19/20/20
f 19/20/20 33/2/2 20/21/21
f 20/21/21 33/2/2 21/22/22
f 21/22/22 33/2/2 22/23/23
f 22/23/23 33/2/2 23/24/24
f 23/24/24 33/2/2 24/25/25
f 24/25/25 33/2/2 25/26/26
f 25/26/26 33/2/2 26/27/27
f 26/27/27 33/2/2 27/28/28
f 27/28/28 33/2/2 28/29/29
f 28/29/29 33/2/2 29/30/30
f 29/30/30 33/2/2 30/31/31
f 30/31/31 33/2/2 31/32/32
f 1/33/1 2/34/3 3/35/4 4/36/5 5/37/6 6/38/7 7/39/8 8/40/9 9/41/10 10/42/11 11/43/12 12/44/13 13/45/14 14/46/15 15/47/16 16/48/17 17/49/18 18/50/19 19/51/20 20/52/21 21/53/22 22/54/23 23/55/24 24/56/25 25/57/26 26/58/27 27/59/28 28/60/29 29/61/30 30/62/31 31/63/32 32/64/33
f 31/32/32 33/2/2 32/65/33
f 32/65/33 33/2/2 1/1/1
