# Blender 3.3.1
# www.blender.org
mtllib robot_armL.mtl
g arml_Mesh
v -1.278696 1.992219 -0.218649
v -1.291743 2.934606 -0.350295
v -1.278696 1.992219 0.187750
v -1.291742 2.934606 0.299297
v -1.607372 2.047744 -0.208452
v -1.830806 2.945726 -0.360492
v -1.607372 2.047745 0.196388
v -1.830805 2.945726 0.288061
v -1.343848 3.372315 -0.239164
v -1.343848 3.372315 0.195749
v -1.696427 3.369149 -0.245102
v -1.696427 3.369149 0.189811
v -1.250396 1.931796 0.104102
v -1.236537 1.901278 -0.015641
v -1.250396 1.931796 -0.135163
v -1.269049 2.146482 -0.262592
v -1.269179 2.391579 -0.307428
v -1.279528 2.672905 -0.337525
v -1.215937 2.933042 -0.201652
v -1.190668 2.932520 -0.023490
v -1.215937 2.933042 0.153667
v -1.279527 2.672905 0.288774
v -1.269179 2.391579 0.263571
v -1.269049 2.146482 0.225580
v -1.530796 1.982606 0.221064
v -1.429740 1.938461 0.231170
v -1.337574 1.948831 0.215631
v -1.413874 2.937125 0.388063
v -1.561274 2.940166 0.415380
v -1.708674 2.943207 0.381846
v -1.797324 2.701623 0.282800
v -1.737631 2.437595 0.264349
v -1.666289 2.201724 0.231721
v -1.617974 1.999641 -0.122102
v -1.622944 1.975644 -0.001365
v -1.617974 1.999641 0.116159
v -1.906611 2.947290 0.139580
v -1.931880 2.947812 -0.038225
v -1.906611 2.947290 -0.215025
v -1.797324 2.701623 -0.341603
v -1.737632 2.437595 -0.304211
v -1.666290 2.201724 -0.254273
v -1.337574 1.948831 -0.240069
v -1.429740 1.938461 -0.248175
v -1.530796 1.982606 -0.233631
v -1.708674 2.943207 -0.449421
v -1.561274 2.940166 -0.477095
v -1.413874 2.937125 -0.443918
v -1.316779 3.383753 -0.149107
v -1.303476 3.389482 -0.020446
v -1.316779 3.383753 0.107411
v -1.411184 3.383043 0.223153
v -1.512476 3.387877 0.235575
v -1.618892 3.381246 0.219782
v -1.713297 3.380536 0.101378
v -1.721476 3.386272 -0.026467
v -1.713298 3.380536 -0.155140
v -1.618892 3.381246 -0.270882
v -1.512476 3.387877 -0.282488
v -1.411184 3.383043 -0.267511
v -1.299073 3.130150 0.294577
v -1.307190 3.259999 0.273231
v -1.323196 3.336699 0.235665
v -1.744632 3.332529 0.227342
v -1.795921 3.256222 0.262136
v -1.828368 3.130634 0.281945
v -1.744632 3.332529 -0.289385
v -1.795921 3.256222 -0.332431
v -1.828368 3.130634 -0.357278
v -1.299073 3.130150 -0.345085
v -1.307190 3.259999 -0.321466
v -1.323196 3.336699 -0.281079
v -1.215147 2.122712 -0.154859
v -1.203440 2.380633 -0.178719
v -1.206730 2.668308 -0.195025
v -1.196442 2.106213 -0.019908
v -1.181340 2.374163 -0.022388
v -1.182440 2.666423 -0.023444
v -1.215147 2.122712 0.115670
v -1.203440 2.380633 0.134151
v -1.206730 2.668308 0.147669
v -1.355147 2.144065 0.291061
v -1.374447 2.398106 0.343300
v -1.396733 2.678925 0.375345
v -1.463078 2.145948 0.313549
v -1.502094 2.406549 0.369667
v -1.538262 2.686260 0.402900
v -1.575294 2.174109 0.294118
v -1.631052 2.423030 0.343456
v -1.679955 2.694599 0.371932
v -1.715294 2.195462 0.125153
v -1.802059 2.440503 0.136241
v -1.869958 2.705216 0.140625
v -1.729714 2.185684 -0.008328
v -1.822850 2.438936 -0.019031
v -1.894084 2.706096 -0.030278
v -1.715294 2.195462 -0.143879
v -1.802059 2.440503 -0.174951
v -1.869958 2.705216 -0.200766
v -1.575294 2.174109 -0.319271
v -1.631052 2.423030 -0.384101
v -1.679955 2.694599 -0.428442
v -1.463078 2.145948 -0.341785
v -1.502095 2.406549 -0.411086
v -1.538262 2.686260 -0.456621
v -1.355147 2.144065 -0.323824
v -1.374447 2.398106 -0.385933
v -1.396733 2.678925 -0.426333
v -1.317132 1.829349 0.112049
v -1.408840 1.810295 0.121758
v -1.513371 1.869868 0.120012
v -1.307251 1.788107 -0.009668
v -1.401842 1.767382 -0.003807
v -1.510430 1.832484 -0.000302
v -1.317132 1.829349 -0.132397
v -1.408840 1.810295 -0.131728
v -1.513371 1.869868 -0.123920
v -1.708423 3.130629 0.374642
v -1.563626 3.130604 0.408046
v -1.418924 3.130367 0.381586
v -1.684980 3.257913 0.347694
v -1.550800 3.259801 0.378291
v -1.417375 3.260000 0.353811
v -1.649172 3.336600 0.297510
v -1.531268 3.340536 0.322376
v -1.415834 3.338945 0.302185
v -1.610796 3.405827 0.109064
v -1.500431 3.414833 0.116626
v -1.397455 3.407302 0.111830
v -1.611340 3.414137 -0.022843
v -1.496398 3.423858 -0.020897
v -1.389522 3.415528 -0.020235
v -1.610796 3.405827 -0.156085
v -1.500431 3.414833 -0.159703
v -1.397455 3.407302 -0.153318
v -1.902675 3.130813 -0.214187
v -1.927388 3.130945 -0.039963
v -1.902675 3.130813 0.135398
v -1.863647 3.256577 -0.199296
v -1.885775 3.257272 -0.036969
v -1.863647 3.256577 0.126172
v -1.798421 3.335241 -0.174673
v -1.815164 3.337892 -0.031741
v -1.798421 3.335241 0.111267
v -1.224672 3.130183 0.151433
v -1.199865 3.130262 -0.022927
v -1.224672 3.130183 -0.198453
v -1.238708 3.261335 0.140195
v -1.215825 3.262331 -0.022056
v -1.238709 3.261335 -0.185362
v -1.266585 3.340304 0.121400
v -1.247372 3.343180 -0.021145
v -1.266585 3.340304 -0.164552
v -1.418924 3.130367 -0.437698
v -1.563626 3.130604 -0.470936
v -1.708423 3.130629 -0.444340
v -1.417375 3.260000 -0.406884
v -1.550800 3.259801 -0.437316
v -1.684981 3.257913 -0.412912
v -1.415834 3.338945 -0.350795
v -1.531268 3.340536 -0.375262
v -1.649172 3.336600 -0.355458
vn 0.9415 -0.1341 -0.3092
vn 0.9996 -0.0273 -0.0004
vn 0.9916 -0.1296 -0.0012
vn 0.9517 -0.0394 -0.3046
vn 0.9998 0.0173 -0.0000
vn 0.9450 -0.1242 0.3027
vn 0.9526 -0.0339 0.3022
vn 0.7035 -0.3308 -0.6290
vn 0.8484 -0.3742 -0.3744
vn 0.7420 -0.1693 -0.6487
vn 0.7572 -0.0805 -0.6483
vn 0.9530 0.0093 -0.3028
vn 0.7639 -0.0195 -0.6451
vn 0.9523 0.0362 -0.3029
vn 0.9992 0.0387 0.0003
vn 0.9526 0.0117 0.3041
vn 0.9512 0.0362 0.3066
vn 0.7599 -0.0101 0.6500
vn 0.7626 -0.0638 0.6437
vn 0.7578 -0.1468 0.6358
vn 0.7290 -0.3017 0.6144
vn 0.8623 -0.3535 0.3626
vn 0.9208 -0.3901 -0.0037
vn 0.4030 -0.1139 0.9081
vn -0.0261 -0.2988 0.9540
vn 0.3990 -0.2258 0.8887
vn 0.3980 -0.0460 0.9163
vn -0.0158 -0.1678 0.9857
vn -0.4204 -0.3296 0.8453
vn -0.0183 -0.0861 0.9961
vn -0.4191 -0.2169 0.8817
vn 0.4142 -0.4486 0.7920
vn 0.7554 0.0270 0.6547
vn 0.3910 0.0111 0.9203
vn -0.0250 -0.0066 0.9997
vn -0.4231 -0.1275 0.8971
vn -0.4300 -0.0254 0.9025
vn -0.7604 -0.1659 0.6279
vn -0.7485 -0.2582 0.6108
vn -0.7340 -0.3484 0.5830
vn -0.7018 -0.4680 0.5372
vn -0.4720 -0.5205 0.7116
vn -0.0649 -0.5377 0.8406
vn -0.9159 -0.2854 0.2824
vn -0.9164 -0.4003 0.0015
vn -0.8856 -0.3803 0.2667
vn -0.9367 -0.1912 0.2933
vn -0.9539 -0.3002 0.0011
vn -0.8808 -0.3979 -0.2566
vn -0.9788 -0.2047 0.0001
vn -0.9111 -0.3043 -0.2780
vn -0.7987 -0.5295 0.2857
vn -0.7709 -0.0441 0.6354
vn -0.9525 -0.0573 0.2990
vn -0.9979 -0.0646 -0.0013
vn -0.9321 -0.2105 -0.2949
vn -0.7581 -0.0655 -0.6488
vn -0.7502 -0.2025 -0.6295
vn -0.7434 -0.2958 -0.5999
vn -0.7342 -0.3837 -0.5601
vn -0.7078 -0.4922 -0.5068
vn -0.7982 -0.5377 -0.2717
vn -0.8364 -0.5481 0.0025
vn -0.4412 -0.3755 -0.8151
vn -0.0263 -0.2130 -0.9767
vn -0.0625 -0.3464 -0.9360
vn -0.4225 -0.2657 -0.8665
vn -0.0015 -0.1215 -0.9926
vn 0.3921 -0.1462 -0.9082
vn 0.3629 -0.2650 -0.8933
vn 0.4097 -0.0679 -0.9097
vn -0.4971 -0.5473 -0.6733
vn -0.4075 -0.1703 -0.8972
vn -0.4010 -0.0494 -0.9147
vn 0.0116 -0.0248 -0.9996
vn 0.4184 0.0016 -0.9083
vn 0.7654 0.0243 -0.6431
vn 0.3598 -0.4896 -0.7943
vn -0.1162 -0.5705 -0.8130
vn 0.5194 -0.6935 0.4993
vn -0.1390 -0.9903 0.0082
vn 0.5543 -0.8323 -0.0024
vn -0.1110 -0.8385 0.5334
vn -0.6408 -0.7677 0.0058
vn -0.1505 -0.8457 -0.5119
vn 0.4828 -0.7162 -0.5039
vn -0.5847 -0.6952 0.4181
vn -0.5994 -0.6980 -0.3918
vn -0.0286 0.1324 0.9908
vn -0.3880 0.4337 0.8133
vn -0.4283 0.1478 0.8915
vn 0.3850 0.1150 0.9157
vn -0.0245 0.3994 0.9164
vn -0.2828 0.7463 0.6025
vn 0.3651 0.3492 0.8630
vn -0.0113 0.7328 0.6804
vn -0.7634 0.1589 0.6260
vn 0.7504 0.0980 0.6537
vn 0.7227 0.2907 0.6271
vn 0.2987 0.6819 0.6677
vn 0.6100 0.5984 0.5195
vn 0.1992 0.9059 0.3738
vn -0.0063 0.9326 0.3608
vn -0.1783 0.9289 0.3245
vn -0.3374 0.9016 0.2706
vn -0.5216 0.7404 0.4240
vn -0.6890 0.4561 0.5633
vn -0.1633 0.9780 0.1296
vn -0.0021 1.0000 0.0005
vn -0.1643 0.9864 0.0006
vn 0.1796 0.9728 0.1465
vn -0.0042 0.9895 0.1446
vn -0.0007 0.9900 -0.1411
vn -0.1571 0.9795 -0.1264
vn 0.1805 0.9731 -0.1434
vn -0.3552 0.9268 0.1219
vn 0.4167 0.8398 0.3480
vn 0.4645 0.8706 0.1621
vn 0.1868 0.9824 0.0004
vn 0.4630 0.8720 -0.1589
vn 0.4165 0.8443 -0.3373
vn 0.2035 0.9104 -0.3601
vn 0.0048 0.9383 -0.3457
vn -0.1614 0.9365 -0.3113
vn -0.3203 0.9107 -0.2609
vn -0.3462 0.9306 -0.1186
vn -0.3575 0.9339 0.0010
vn -0.9858 0.1678 -0.0014
vn -0.8323 0.4890 -0.2613
vn -0.9390 0.1666 -0.3009
vn -0.9415 0.1652 0.2938
vn -0.8729 0.4879 0.0006
vn -0.6020 0.7776 -0.1815
vn -0.8403 0.4757 0.2600
vn -0.6244 0.7811 0.0018
vn -0.9498 -0.0686 -0.3051
vn -0.7483 0.1637 -0.6428
vn -0.6153 0.7659 0.1866
vn -0.4942 0.7637 -0.4153
vn -0.6659 0.4817 -0.5697
vn 0.9966 0.0828 0.0003
vn 0.9215 0.2511 0.2963
vn 0.9480 0.0857 0.3065
vn 0.9216 0.2562 -0.2916
vn 0.9704 0.2413 0.0003
vn 0.7817 0.5751 0.2411
vn 0.7800 0.5793 -0.2366
vn 0.8158 0.5783 0.0005
vn 0.9492 0.0884 -0.3019
vn 0.7306 0.3035 -0.6116
vn 0.6117 0.6099 -0.5038
vn 0.4799 0.8773 0.0006
vn 0.4170 0.1224 -0.9006
vn 0.0150 0.4292 -0.9031
vn 0.3914 0.3715 -0.8419
vn 0.0146 0.1406 -0.9900
vn -0.3516 0.4656 -0.8122
vn 0.0149 0.7553 -0.6552
vn 0.3128 0.6993 -0.6427
vn -0.2522 0.7715 -0.5842
vn 0.7620 0.1033 -0.6394
vn -0.3941 0.1553 -0.9058
vt 0.208804 0.082749
vt 0.548749 0.709516
vt 0.265283 0.471610
vt 0.042837 0.084761
vt 0.983581 0.070624
vt 0.995285 0.462757
vt 0.000000 0.474827
vt 0.685943 0.536201
vt 0.388258 0.125042
vt 0.311450 0.504267
vt 0.622533 0.156201
vt 0.553675 0.129065
vt 0.576447 0.510712
vt 0.660985 0.630107
vt 0.660985 0.809900
vt 0.399597 0.883838
vt 0.387805 0.704433
vt 0.075040 0.058864
vt 1.000000 0.040328
vt 0.122981 0.045408
vt 0.172752 0.057679
vt 0.559928 0.752147
vt 0.597515 0.745902
vt 0.226429 0.146074
vt 0.559928 0.658741
vt 0.245234 0.247096
vt 0.597515 0.643279
vt 0.258755 0.363347
vt 0.199655 0.470296
vt 0.125255 0.470494
vt 0.054549 0.472055
vt 0.002985 0.366448
vt 0.993897 0.354992
vt 0.012048 0.249924
vt 0.992377 0.238330
vt 0.027068 0.148491
vt 0.988721 0.135840
vt 0.849527 0.079557
vt 0.568661 0.098044
vt 0.888022 0.059732
vt 0.956345 0.055536
vt 0.926889 0.060732
vt 0.918438 0.476649
vt 0.938877 0.471172
vt 0.856798 0.483212
vt 0.622533 0.503233
vt 0.799885 0.485911
vt 0.576557 0.408809
vt 0.572954 0.297043
vt 0.564284 0.195947
vt 0.422892 0.106868
vt 0.471922 0.098555
vt 0.520245 0.109236
vt 0.510958 0.514457
vt 0.436700 0.514430
vt 0.366067 0.510933
vt 0.321427 0.402604
vt 0.630284 0.258086
vt 0.340641 0.291393
vt 0.647008 0.369425
vt 0.365708 0.191117
vt 0.668097 0.469881
vt 0.796143 0.582476
vt 0.769732 0.596942
vt 0.521440 0.712151
vt 0.759030 0.584212
vt 0.731449 0.592991
vt 0.717692 0.564049
vt 0.382873 0.093525
vt 0.693965 0.584212
vt 0.678532 0.157291
vt 0.740426 0.161244
vt 0.797973 0.167213
vt 0.311450 0.474450
vt 0.649366 0.667252
vt 0.643651 0.720398
vt 0.649366 0.773297
vt 0.688228 0.821057
vt 0.504558 0.682794
vt 0.462859 0.680538
vt 0.419331 0.689984
vt 0.383768 0.741463
vt 0.384123 0.794469
vt 0.390723 0.847279
vt 0.432634 0.892387
vt 0.476905 0.894244
vt 0.517862 0.885198
vt 0.688228 0.618216
vt 0.002791 0.555713
vt 0.998044 0.542474
vt 1.000000 0.594334
vt 0.012293 0.609395
vt 0.998588 0.623600
vt 0.653997 0.826768
vt 0.028826 0.641188
vt 0.365434 0.690045
vt 0.567906 0.635325
vt 0.340170 0.676598
vt 0.574004 0.586123
vt 0.379444 0.903200
vt 0.324967 0.629417
vt 0.640475 0.030231
vt 0.356291 0.921862
vt 0.312819 0.579771
vt 0.626722 0.080286
vt 0.264019 0.552545
vt 0.255158 0.606450
vt 0.239855 0.638629
vt 0.653997 0.613147
vt 0.178886 0.135790
vt 0.188382 0.241994
vt 0.195826 0.360804
vt 0.122528 0.129296
vt 0.123092 0.239686
vt 0.124174 0.360425
vt 0.068407 0.137129
vt 0.060612 0.243544
vt 0.055875 0.362501
vt 0.948612 0.140238
vt 0.920994 0.145582
vt 0.918333 0.252989
vt 0.943623 0.247562
vt 0.917004 0.370108
vt 0.939754 0.364625
vt 0.875654 0.150406
vt 0.864953 0.261214
vt 0.857876 0.378294
vt 0.595579 0.179775
vt 0.832789 0.163390
vt 0.815420 0.269411
vt 0.612060 0.285432
vt 0.803265 0.383178
vt 0.620442 0.399730
vt 0.517628 0.195288
vt 0.516512 0.300852
vt 0.513844 0.413254
vt 0.462177 0.190834
vt 0.451747 0.299925
vt 0.442480 0.413374
vt 0.407702 0.192615
vt 0.389359 0.297760
vt 0.374353 0.409862
vt 0.709253 0.481325
vt 0.695810 0.375389
vt 0.684112 0.260981
vt 0.755998 0.494921
vt 0.749902 0.384443
vt 0.743622 0.266958
vt 0.566664 0.745065
vt 0.522392 0.638212
vt 0.798594 0.498941
vt 0.799885 0.391884
vt 0.284141 0.251354
vt 0.559928 0.638212
vt 0.798907 0.274454
vt 0.302643 0.367565
vt 0.938878 0.004923
vt 0.770970 0.745973
vt 0.969541 0.000000
vt 0.075924 0.017822
vt 0.732309 0.750136
vt 0.535930 0.019220
vt 0.900334 0.000000
vt 0.860342 0.026732
vt 0.528539 0.049882
vt 0.770970 0.713717
vt 0.124908 0.000000
vt 0.485092 0.000000
vt 0.730983 0.716822
vt 0.479586 0.033220
vt 0.692008 0.699227
vt 0.769389 0.661759
vt 0.526916 0.776738
vt 0.175752 0.016611
vt 0.730669 0.662808
vt 0.428869 0.047458
vt 0.692937 0.648096
vt 0.807338 0.561894
vt 0.619506 0.579794
vt 0.863317 0.560480
vt 0.942636 0.549804
vt 0.923900 0.555181
vt 0.823527 0.611530
vt 0.383452 0.638212
vt 0.609917 0.630163
vt 0.875498 0.610977
vt 0.931382 0.606255
vt 0.949009 0.601029
vt 0.844763 0.639567
vt 0.402882 0.658457
vt 0.890670 0.639881
vt 0.450764 0.644929
vt 0.692008 0.854153
vt 0.938877 0.635141
vt 0.955876 0.630070
vt 0.498616 0.650017
vt 0.426709 0.735600
vt 0.472183 0.729455
vt 0.514251 0.728500
vt 0.681554 0.774813
vt 0.430419 0.790086
vt 0.477954 0.786135
vt 0.521440 0.782813
vt 0.677943 0.720145
vt 0.433898 0.844976
vt 0.479676 0.843444
vt 0.681554 0.665201
vt 0.521440 0.837876
vt 0.366561 0.585756
vt 0.436178 0.589034
vt 0.509401 0.589230
vt 0.324902 0.868840
vt 0.375060 0.634978
vt 0.439979 0.638212
vt 0.311450 0.802502
vt 0.316078 0.734581
vt 0.508045 0.638212
vt 0.354376 0.857404
vt 0.343743 0.798930
vt 0.346623 0.739451
vt 0.056419 0.553639
vt 0.126015 0.552349
vt 0.199307 0.551906
vt 0.062180 0.608019
vt 0.126957 0.607202
vt 0.195132 0.606406
vt 0.630558 0.779553
vt 0.071822 0.641062
vt 0.128793 0.641188
vt 0.622533 0.720616
vt 0.188600 0.639646
vt 0.630558 0.661341
vt 0.799055 0.087785
vt 0.309621 0.554397
vt 0.742558 0.083034
vt 0.681744 0.080349
vt 0.799885 0.035505
vt 0.297193 0.608068
vt 0.747768 0.031303
vt 0.691395 0.029594
vt 0.404074 0.951969
vt 0.797968 0.004918
vt 0.516320 0.919377
vt 0.692008 0.584212
vt 0.274344 0.640928
vt 0.752778 0.000619
vt 0.469679 0.932711
vt 0.703318 0.000000
vt 0.420587 0.927813
s 1
g arml_Metal
usemtl Metal
f 73/110/1 77/114/2 76/113/3
f 74/111/4 78/115/5 77/114/2
f 77/114/2 79/116/6 76/113/3
f 78/115/5 80/117/7 77/114/2
f 1/1/8 73/110/1 15/21/9
f 16/24/10 74/111/4 73/110/1
f 17/26/11 75/112/12 74/111/4
f 18/28/13 19/29/14 75/112/12
f 75/112/12 20/30/15 78/115/5
f 20/30/15 81/118/16 78/115/5
f 21/31/17 22/32/18 81/118/16
f 81/118/16 23/34/19 80/117/7
f 80/117/7 24/36/20 79/116/6
f 79/116/6 3/4/21 13/18/22
f 76/113/3 13/18/22 14/20/23
f 15/21/9 76/113/3 14/20/23
f 83/121/24 85/125/25 82/120/26
f 84/123/27 86/126/28 83/121/24
f 86/126/28 88/129/29 85/125/25
f 87/127/30 89/130/31 86/126/28
f 3/5/21 82/119/26 27/41/32
f 23/35/19 82/119/26 24/37/20
f 22/33/18 83/122/24 23/35/19
f 4/6/33 84/124/27 22/33/18
f 28/43/34 87/127/30 84/123/27
f 29/45/35 90/132/36 87/127/30
f 30/46/37 31/48/38 90/133/36
f 90/133/36 32/49/39 89/131/31
f 89/131/31 33/50/40 88/128/29
f 88/128/29 7/12/41 25/39/42
f 85/125/25 25/38/42 26/40/43
f 82/120/26 26/40/43 27/42/32
f 92/135/44 94/137/45 91/134/46
f 93/136/47 95/138/48 92/135/44
f 95/138/48 97/140/49 94/137/45
f 96/139/50 98/141/51 95/138/48
f 7/12/41 91/134/46 36/53/52
f 32/49/39 91/134/46 33/50/40
f 31/48/38 92/135/44 32/49/39
f 8/13/53 93/136/47 31/48/38
f 37/54/54 96/139/50 93/136/47
f 38/55/55 99/142/56 96/139/50
f 99/142/56 6/10/57 40/57/58
f 98/141/51 40/57/58 41/59/59
f 98/141/51 42/61/60 97/140/49
f 97/140/49 5/9/61 34/51/62
f 94/137/45 34/51/62 35/52/63
f 36/53/52 94/137/45 35/52/63
f 100/143/64 104/147/65 103/146/66
f 101/144/67 105/148/68 104/147/65
f 103/146/66 107/152/69 106/151/70
f 104/147/65 108/155/71 107/152/69
f 5/8/61 100/143/64 45/68/72
f 42/62/60 101/144/67 100/143/64
f 41/60/59 102/145/73 101/144/67
f 40/58/58 46/71/74 102/145/73
f 102/145/73 47/72/75 105/148/68
f 105/148/68 48/73/76 108/155/71
f 108/156/71 2/3/77 18/28/13
f 107/153/69 18/28/13 17/26/11
f 106/149/70 17/27/11 16/23/10
f 106/150/70 1/2/8 43/65/78
f 44/66/79 106/151/70 43/63/78
f 45/68/72 103/146/66 44/66/79
f 109/158/80 113/169/81 112/166/82
f 110/162/83 114/170/84 113/168/81
f 112/166/82 116/175/85 115/172/86
f 114/171/84 116/175/85 113/169/81
f 27/41/32 13/19/22 3/5/21
f 27/42/32 110/163/83 109/157/80
f 26/40/43 111/164/87 110/163/83
f 25/39/42 36/53/52 111/165/87
f 111/165/87 35/52/63 114/170/84
f 35/52/63 117/176/88 114/170/84
f 34/51/62 45/69/72 117/176/88
f 117/177/88 44/67/79 116/175/85
f 116/175/85 43/64/78 115/172/86
f 15/22/9 43/65/78 1/2/8
f 14/20/23 115/174/86 15/21/9
f 109/160/80 14/20/23 13/18/22
f 119/180/89 121/183/90 118/178/91
f 120/182/92 122/186/93 119/180/89
f 122/186/93 124/189/94 121/183/90
f 123/187/95 125/191/96 122/186/93
f 8/13/53 118/179/91 66/99/97
f 30/47/37 119/180/89 118/178/91
f 29/45/35 120/182/92 119/180/89
f 28/44/34 61/90/98 120/181/92
f 61/90/98 123/188/95 120/181/92
f 62/91/99 126/195/100 123/188/95
f 63/94/101 52/78/102 126/193/100
f 126/196/100 53/80/103 125/192/96
f 125/192/96 54/81/104 124/190/94
f 124/190/94 12/17/105 64/96/106
f 121/184/90 64/96/106 65/98/107
f 118/179/91 65/97/107 66/99/97
f 127/197/108 131/202/109 130/201/110
f 129/199/111 131/202/109 128/198/112
f 130/201/110 134/206/113 133/205/114
f 131/202/109 135/208/115 134/206/113
f 12/17/105 127/197/108 55/82/116
f 54/81/104 128/198/112 127/197/108
f 52/79/102 128/198/112 53/80/103
f 10/15/117 129/200/111 52/78/102
f 51/77/118 132/204/119 129/200/111
f 132/204/119 49/75/120 135/207/115
f 135/207/115 9/14/121 60/88/122
f 134/206/113 60/87/122 59/86/123
f 133/205/114 59/86/123 58/85/124
f 133/205/114 11/16/125 57/84/126
f 130/201/110 57/84/126 56/83/127
f 55/82/116 130/201/110 56/83/127
f 137/210/128 139/213/129 136/209/130
f 138/211/131 140/214/132 137/210/128
f 140/215/132 142/218/133 139/212/129
f 141/216/134 143/219/135 140/215/132
f 39/56/136 69/104/137 6/10/57
f 39/56/136 137/210/128 136/209/130
f 38/55/55 138/211/131 137/210/128
f 37/54/54 66/99/97 138/211/131
f 66/99/97 141/217/134 138/211/131
f 65/98/107 144/220/138 141/216/134
f 144/220/138 12/17/105 55/82/116
f 144/220/138 56/83/127 143/219/135
f 143/219/135 57/84/126 142/218/133
f 142/218/133 11/16/125 67/100/139
f 139/212/129 67/100/139 68/103/140
f 136/209/130 68/101/140 69/104/137
f 146/222/141 148/224/142 145/221/143
f 146/222/141 150/226/144 149/225/145
f 149/225/145 151/228/146 148/224/142
f 149/225/145 153/231/147 152/229/148
f 4/7/33 145/221/143 61/89/98
f 21/31/17 146/222/141 145/221/143
f 20/30/15 147/223/149 146/222/141
f 2/3/77 147/223/149 19/29/14
f 147/223/149 71/107/150 150/226/144
f 150/226/144 72/108/151 153/231/147
f 153/232/147 9/14/121 49/75/120
f 152/230/148 49/75/120 50/76/152
f 152/230/148 51/77/118 151/227/146
f 151/227/146 10/15/117 63/94/101
f 148/224/142 63/95/101 62/92/99
f 145/221/143 62/92/99 61/89/98
f 154/233/153 158/239/154 157/237/155
f 155/235/156 159/240/157 158/239/154
f 157/237/155 161/246/158 160/242/159
f 158/239/154 162/248/160 161/246/158
f 48/74/76 70/106/161 2/3/77
f 47/72/75 154/233/153 48/73/76
f 46/71/74 155/235/156 47/72/75
f 6/11/57 156/236/162 46/71/74
f 156/236/162 68/102/140 159/240/157
f 159/241/157 67/100/139 162/249/160
f 162/249/160 11/16/125 58/85/124
f 161/247/158 58/85/124 59/86/123
f 160/243/159 59/86/123 60/87/122
f 72/109/151 60/88/122 9/14/121
f 71/107/150 160/245/159 72/108/151
f 70/106/161 157/238/155 71/107/150
f 73/110/1 74/111/4 77/114/2
f 74/111/4 75/112/12 78/115/5
f 77/114/2 80/117/7 79/116/6
f 78/115/5 81/118/16 80/117/7
f 1/1/8 16/24/10 73/110/1
f 16/24/10 17/26/11 74/111/4
f 17/26/11 18/28/13 75/112/12
f 18/28/13 2/3/77 19/29/14
f 75/112/12 19/29/14 20/30/15
f 20/30/15 21/31/17 81/118/16
f 21/31/17 4/7/33 22/32/18
f 81/118/16 22/32/18 23/34/19
f 80/117/7 23/34/19 24/36/20
f 79/116/6 24/36/20 3/4/21
f 76/113/3 79/116/6 13/18/22
f 15/21/9 73/110/1 76/113/3
f 83/121/24 86/126/28 85/125/25
f 84/123/27 87/127/30 86/126/28
f 86/126/28 89/130/31 88/129/29
f 87/127/30 90/132/36 89/130/31
f 3/5/21 24/37/20 82/119/26
f 23/35/19 83/122/24 82/119/26
f 22/33/18 84/124/27 83/122/24
f 4/6/33 28/44/34 84/124/27
f 28/43/34 29/45/35 87/127/30
f 29/45/35 30/47/37 90/132/36
f 30/46/37 8/13/53 31/48/38
f 90/133/36 31/48/38 32/49/39
f 89/131/31 32/49/39 33/50/40
f 88/128/29 33/50/40 7/12/41
f 85/125/25 88/129/29 25/38/42
f 82/120/26 85/125/25 26/40/43
f 92/135/44 95/138/48 94/137/45
f 93/136/47 96/139/50 95/138/48
f 95/138/48 98/141/51 97/140/49
f 96/139/50 99/142/56 98/141/51
f 7/12/41 33/50/40 91/134/46
f 32/49/39 92/135/44 91/134/46
f 31/48/38 93/136/47 92/135/44
f 8/13/53 37/54/54 93/136/47
f 37/54/54 38/55/55 96/139/50
f 38/55/55 39/56/136 99/142/56
f 99/142/56 39/56/136 6/10/57
f 98/141/51 99/142/56 40/57/58
f 98/141/51 41/59/59 42/61/60
f 97/140/49 42/61/60 5/9/61
f 94/137/45 97/140/49 34/51/62
f 36/53/52 91/134/46 94/137/45
f 100/143/64 101/144/67 104/147/65
f 101/144/67 102/145/73 105/148/68
f 103/146/66 104/147/65 107/152/69
f 104/147/65 105/148/68 108/155/71
f 5/8/61 42/62/60 100/143/64
f 42/62/60 41/60/59 101/144/67
f 41/60/59 40/58/58 102/145/73
f 40/58/58 6/11/57 46/71/74
f 102/145/73 46/71/74 47/72/75
f 105/148/68 47/72/75 48/73/76
f 108/156/71 48/74/76 2/3/77
f 107/153/69 108/156/71 18/28/13
f 106/149/70 107/154/69 17/27/11
f 106/150/70 16/25/10 1/2/8
f 44/66/79 103/146/66 106/151/70
f 45/68/72 100/143/64 103/146/66
f 109/158/80 110/161/83 113/169/81
f 110/162/83 111/165/87 114/170/84
f 112/166/82 113/169/81 116/175/85
f 114/171/84 117/177/88 116/175/85
f 27/41/32 109/159/80 13/19/22
f 27/42/32 26/40/43 110/163/83
f 26/40/43 25/38/42 111/164/87
f 25/39/42 7/12/41 36/53/52
f 111/165/87 36/53/52 35/52/63
f 35/52/63 34/51/62 117/176/88
f 34/51/62 5/9/61 45/69/72
f 117/177/88 45/70/72 44/67/79
f 116/175/85 44/67/79 43/64/78
f 15/22/9 115/173/86 43/65/78
f 14/20/23 112/167/82 115/174/86
f 109/160/80 112/167/82 14/20/23
f 119/180/89 122/186/93 121/183/90
f 120/182/92 123/187/95 122/186/93
f 122/186/93 125/191/96 124/189/94
f 123/187/95 126/194/100 125/191/96
f 8/13/53 30/46/37 118/179/91
f 30/47/37 29/45/35 119/180/89
f 29/45/35 28/43/34 120/182/92
f 28/44/34 4/6/33 61/90/98
f 61/90/98 62/91/99 123/188/95
f 62/91/99 63/93/101 126/195/100
f 63/94/101 10/15/117 52/78/102
f 126/196/100 52/79/102 53/80/103
f 125/192/96 53/80/103 54/81/104
f 124/190/94 54/81/104 12/17/105
f 121/184/90 124/190/94 64/96/106
f 118/179/91 121/185/90 65/97/107
f 127/197/108 128/198/112 131/202/109
f 129/199/111 132/203/119 131/202/109
f 130/201/110 131/202/109 134/206/113
f 131/202/109 132/203/119 135/208/115
f 12/17/105 54/81/104 127/197/108
f 54/81/104 53/80/103 128/198/112
f 52/79/102 129/199/111 128/198/112
f 10/15/117 51/77/118 129/200/111
f 51/77/118 50/76/152 132/204/119
f 132/204/119 50/76/152 49/75/120
f 135/207/115 49/75/120 9/14/121
f 134/206/113 135/208/115 60/87/122
f 133/205/114 134/206/113 59/86/123
f 133/205/114 58/85/124 11/16/125
f 130/201/110 133/205/114 57/84/126
f 55/82/116 127/197/108 130/201/110
f 137/210/128 140/214/132 139/213/129
f 138/211/131 141/217/134 140/214/132
f 140/215/132 143/219/135 142/218/133
f 141/216/134 144/220/138 143/219/135
f 39/56/136 136/209/130 69/104/137
f 39/56/136 38/55/55 137/210/128
f 38/55/55 37/54/54 138/211/131
f 37/54/54 8/13/53 66/99/97
f 66/99/97 65/97/107 141/217/134
f 65/98/107 64/96/106 144/220/138
f 144/220/138 64/96/106 12/17/105
f 144/220/138 55/82/116 56/83/127
f 143/219/135 56/83/127 57/84/126
f 142/218/133 57/84/126 11/16/125
f 139/212/129 142/218/133 67/100/139
f 136/209/130 139/213/129 68/101/140
f 146/222/141 149/225/145 148/224/142
f 146/222/141 147/223/149 150/226/144
f 149/225/145 152/229/148 151/228/146
f 149/225/145 150/226/144 153/231/147
f 4/7/33 21/31/17 145/221/143
f 21/31/17 20/30/15 146/222/141
f 20/30/15 19/29/14 147/223/149
f 2/3/77 70/106/161 147/223/149
f 147/223/149 70/106/161 71/107/150
f 150/226/144 71/107/150 72/108/151
f 153/232/147 72/109/151 9/14/121
f 152/230/148 153/232/147 49/75/120
f 152/230/148 50/76/152 51/77/118
f 151/227/146 51/77/118 10/15/117
f 148/224/142 151/228/146 63/95/101
f 145/221/143 148/224/142 62/92/99
f 154/233/153 155/235/156 158/239/154
f 155/235/156 156/236/162 159/240/157
f 157/237/155 158/239/154 161/246/158
f 158/239/154 159/240/157 162/248/160
f 48/74/76 154/234/153 70/106/161
f 47/72/75 155/235/156 154/233/153
f 46/71/74 156/236/162 155/235/156
f 6/11/57 69/105/137 156/236/162
f 156/236/162 69/105/137 68/102/140
f 159/241/157 68/103/140 67/100/139
f 162/249/160 67/100/139 11/16/125
f 161/247/158 162/249/160 58/85/124
f 160/243/159 161/247/158 59/86/123
f 72/109/151 160/244/159 60/88/122
f 71/107/150 157/238/155 160/245/159
f 70/106/161 154/234/153 157/238/155
